<svg xmlns="http://www.w3.org/2000/svg" id="_Шар_1" data-name="Шар 1" viewBox="0 0 841.89 368.5"><defs><style>.cls-1{fill:#ff4d00}</style></defs><path class="cls-1" d="M365.2,260.25c-16.91-18.77-39.89-48.89-56.73-90.88-23.08-57.56-23.13-108.81-21.03-137.09,12.31,37.55,31.24,73.92,61.1,80.13,46.7,9.71,98.07-58.92,104.17-53.09,4.82,4.61-32.08,42.76-58.1,98.16-18.95,40.36-26.24,77.33-29.41,102.77Z"/><path class="cls-1" d="M467.37,108.26c-16.91,18.77-39.89,48.89-56.73,90.88-23.08,57.56-23.13,108.81-21.03,137.09,12.31-37.55,31.24-73.92,61.1-80.13,46.7-9.71,98.07,58.92,104.17,53.09,4.82-4.61-32.08-42.76-58.1-98.16-18.95-40.36-26.24-77.33-29.41-102.77Z"/></svg>
